<svg class="h-16" xmlns="http://www.w3.org/2000/svg" viewBox="0 0 2115.5 740">
  <g>
    <g>
      <path class="cls-1" fill="#32BC89" d="M370 0C165.65 0 0 165.65 0 370s165.65 370 370 370 370-165.65 370-370S574.35 0 370 0Zm159.52 421.59q-49.69 55.2-134.29 55.2-55.16-3.68-80.92-29.81V576.9A35.81 35.81 0 0 1 290 610.8V439.35h3.41c3.06 0 4.35-2.65 2.79-6.05l-3-6-5.61-12.15-2.79-6.33c-1.57-3.4-4.09-3.4-5.62 0l-2.92 6.33-5.76 11.91-2.85 6.16c-1.54 3.33-.28 6.06 2.82 6.06h3.4v177l-23.82 8.13v-421h3.4c3.07 0 4.33-2.66 2.79-6.06l-2.82-6.12-5.61-12.15-2.81-6.15c-1.57-3.41-4.09-3.41-5.62 0l-2.86 6.16-5.61 12.15-2.72 6.12c-1.71 3.4-.41 6.09 2.62 6.09h3.4v426.37A16.64 16.64 0 0 1 212 614.17l-.76-438.63a43.94 43.94 0 0 1 29.73-41.64l28.85-9.9a33 33 0 0 1 43.61 31.62c-.67 50.89-1.28 129.54.74 163.68 2.46 41.42 30.18 70.75 77.35 72.45 59 2.12 96.75-34.76 99.51-91.61 3.33-68.64-35.63-110.49-99.34-106.69a92.15 92.15 0 0 0-28.59 6.22 21.41 21.41 0 0 1-29.26-19.93c18.62-15.08 45.81-20.83 61.43-20.83 36.65-.17 68.7 12.32 92.29 35.87 25 25 38.59 60 38.59 98.69 0 81.23-63.67 131.53-122.68 131.53C376.86 425 290 417.13 290 315.62V176.94h3.41c3.06 0 4.35-2.65 2.79-6.05l-2.93-6.3-5.61-12.12-2.86-6.15c-1.57-3.41-4.09-3.41-5.62 0l-2.92 6.29-5.62 12.12-2.86 6.16c-1.53 3.33-.27 6.05 2.83 6.05h3.4v144a8.13 8.13 0 0 0 0 1.56c3.44 87.15 68.41 118.5 129.36 118.5 66.63 0 138.57-56.47 138.43-147.54 0-43-15.38-82-43.28-109.81-26.58-26.51-62.38-40.53-103.22-40.53h-.37c-14.13 0-39.75 2.48-61.26 16.81v-23.52a17.43 17.43 0 0 1 10.14-15.78 127.18 127.18 0 0 1 51.29-11.75q84.63 0 134.42 55.17a186.45 186.45 0 0 1 49.68 128.77 186.38 186.38 0 0 1-49.68 128.77Z"/>
      <path fill="#000" d="M822 345.26q-5.13-5.14-5.14-13.95v-137q0-8.55 4.65-13.21t13.21-4.64h61.39q28.11 0 43.78 14.18t15.65 39.62q0 25.44-15.65 39.63t-43.78 14.18H855v47.2q0 8.81-5.14 13.95T836 350.39q-8.84 0-14-5.13Zm97.83-114.71q0-24.95-28.62-25H855v49.65h36.19q28.66.05 28.66-24.65ZM1085.55 231c3.34 3.1 5 7.33 5 12.72v89.76a15.53 15.53 0 0 1-5.26 12.22q-5.26 4.65-13.58 4.65-7.83 0-12.47-4.4t-4.65-11.74v-2.41a38 38 0 0 1-14.77 14.2 43.27 43.27 0 0 1-20.67 4.89q-22.74 0-33.87-12.59t-11.13-38v-56.54c0-5.39 1.67-9.62 5-12.72s7.87-4.65 13.58-4.65 10.18 1.55 13.45 4.65 4.89 7.33 4.89 12.72V301q0 10.75 4.52 15.89t13.82 5.14q10.77 0 17.49-7.34t6.73-19.32v-51.6c0-5.39 1.62-9.62 4.89-12.72s7.74-4.65 13.45-4.65 10.24 1.54 13.58 4.6ZM1202.21 229.69q4.29 3.8 4.28 11.38 0 8.07-3.91 12t-13.94 4.89l-7.34.73q-13.46 1.47-19.44 8.81t-6 18.83V333q0 8.57-5.26 13a19.73 19.73 0 0 1-13.09 4.4q-8.07 0-13.33-4.4t-5.25-13v-89.73q0-8.07 5.38-12.48a19.81 19.81 0 0 1 13-4.4 17.94 17.94 0 0 1 12.23 4.28q4.89 4.29 4.89 11.86v6.61a34 34 0 0 1 13.3-16.14 41.31 41.31 0 0 1 19.44-6.35l3.43-.25q7.34-.49 11.61 3.29ZM1235.35 348.43a58.38 58.38 0 0 1-19.32-7.82 15 15 0 0 1-5.62-5.87 17.35 17.35 0 0 1-2-8.32 14.14 14.14 0 0 1 3.18-9.41 9.83 9.83 0 0 1 7.83-3.79 19.26 19.26 0 0 1 6.36 1.1c2.11.73 4.31 1.59 6.6 2.56a86.34 86.34 0 0 0 13.45 5 62.34 62.34 0 0 0 16.39 1.83q8.55 0 13.33-2.69t4.77-7.34a7.47 7.47 0 0 0-2.08-5.5c-1.39-1.38-4-2.65-7.71-3.79s-9.7-2.53-17.85-4.16q-21.78-4.15-31.31-12.47t-9.54-23.24a31.79 31.79 0 0 1 6.73-19.81q6.72-8.8 18.47-13.81a66.65 66.65 0 0 1 26.41-5 79.17 79.17 0 0 1 20.55 2.69 65.78 65.78 0 0 1 17.85 7.58 16.34 16.34 0 0 1 4.4 23.48 9.73 9.73 0 0 1-7.82 3.92q-5.64 0-13.46-4.41a72.86 72.86 0 0 0-11.12-4.77 39.82 39.82 0 0 0-11.87-1.58q-7.58 0-12 2.81a8.69 8.69 0 0 0-4.4 7.7q0 5.15 5.13 7.83t19.81 5.38q16.4 3.18 25.68 7.7t13.46 11.38q4.15 6.84 4.15 17.36 0 17.37-14.3 27.64t-38.28 10.27a120.79 120.79 0 0 1-25.87-2.45ZM1445.57 231c3.34 3.1 5 7.33 5 12.72v89.76a15.5 15.5 0 0 1-5.26 12.22q-5.25 4.65-13.57 4.65-7.83 0-12.47-4.4t-4.65-11.74v-2.41a38 38 0 0 1-14.8 14.19 43.2 43.2 0 0 1-20.66 4.89q-22.76 0-33.88-12.59t-11.13-38v-56.53c0-5.39 1.67-9.62 5-12.72s7.86-4.65 13.57-4.65 10.19 1.55 13.45 4.65 4.9 7.33 4.9 12.72V301q0 10.75 4.52 15.89t13.82 5.14q10.75 0 17.49-7.34t6.72-19.32v-51.6c0-5.39 1.63-9.62 4.89-12.72s7.75-4.65 13.45-4.65 10.26 1.54 13.61 4.6ZM1482.13 201.81q-5.62-5-5.62-13.57t5.62-13.46q5.63-4.89 15.41-4.89 9.54 0 15.29 5t5.74 13.33q0 8.56-5.62 13.57t-15.41 5q-9.78.03-15.41-4.98Zm2.08 144.19q-5.26-4.41-5.26-13v-89.24q0-8.56 5.38-13a20.21 20.21 0 0 1 13.21-4.4 19.69 19.69 0 0 1 13.08 4.4q5.27 4.41 5.26 13V333q0 8.57-5.26 13a19.69 19.69 0 0 1-13.08 4.4q-8.07-.01-13.33-4.4ZM1628.88 327.16q3.42 3.18 3.42 9.29a12 12 0 0 1-5.63 10.76q-5.62 3.68-16.14 2.94l-6.85-.49q-42.79-3.42-42.8-44.76v-48.43h-9.78q-8.07 0-12.23-3.54t-4.16-10.15q0-6.85 4.16-10.4t12.23-3.54h9.78v-19.08q0-8.07 5-12.72t13.57-4.65q8.57 0 13.45 4.65t4.89 12.72v19.08h17.12q16.63 0 16.64 13.94 0 6.6-4.16 10.15c-2.78 2.36-6.93 3.54-12.48 3.54h-17.12v51.12q0 7.34 3.43 11.13t10 4.28l6.84.49c4.94.33 8.53 1.51 10.82 3.67ZM870.25 562.82q-5.26-5.15-5.26-13.7V425.36h-39.62q-18.11 0-18.1-15.65 0-15.4 18.1-15.41h117.4q18.09 0 18.1 15.41 0 15.66-18.1 15.65h-39.63v123.76q0 8.57-5.13 13.7T884.07 568q-8.56 0-13.82-5.18ZM1059.07 534.93a15.87 15.87 0 0 1 3 10 13.31 13.31 0 0 1-2.44 7.71 19.87 19.87 0 0 1-6.85 6 87.85 87.85 0 0 1-19.32 7.21 82.71 82.71 0 0 1-20.3 2.81q-19.58 0-34.12-7.58a53 53 0 0 1-22.38-21.64q-7.83-14.07-7.83-33.14 0-18.35 7.58-32.53a55.62 55.62 0 0 1 21-22.14 59 59 0 0 1 30.57-7.94q16.38 0 28.74 7.21a49.31 49.31 0 0 1 19.2 20.55q6.84 13.32 6.85 31.18 0 5.39-2.57 8.19a9.26 9.26 0 0 1-7.22 2.81h-68.39q1.71 14.45 8.81 20.92t20.3 6.48a43.68 43.68 0 0 0 12.71-1.71 122.3 122.3 0 0 0 12.48-4.65q3.42-1.47 6.6-2.57a17.57 17.57 0 0 1 5.63-1.1 9.66 9.66 0 0 1 7.95 3.93Zm-66.9-59.06q-6.36 6.72-7.58 19.44h47.2q-.72-13-6.48-19.56t-16.26-6.61q-10.51 0-16.88 6.73ZM1108.1 561.1a51.86 51.86 0 0 1-21.4-21.52q-7.47-13.94-7.46-32.77t8-33.14a55.22 55.22 0 0 1 22.38-22.14q14.43-7.81 33.26-7.82a74.59 74.59 0 0 1 19.69 2.69 65.74 65.74 0 0 1 17.73 7.58 15.08 15.08 0 0 1 7.58 13.69 17.28 17.28 0 0 1-2.93 10.4 9.21 9.21 0 0 1-7.83 4 16.14 16.14 0 0 1-6-1.1c-1.88-.73-4.36-1.83-7.46-3.3a77.16 77.16 0 0 0-9.17-4.16 26.94 26.94 0 0 0-9.17-1.46q-13.71 0-20.91 8.68t-7.22 25.31q0 16.63 7.22 25.44t20.91 8.8a27.76 27.76 0 0 0 9-1.34 72.64 72.64 0 0 0 9.53-4.28q4.65-2.21 7.34-3.3a15.22 15.22 0 0 1 5.87-1.1 9.23 9.23 0 0 1 7.71 4.15 17.36 17.36 0 0 1 3 10.52q0 9.06-7.58 13.45a64.64 64.64 0 0 1-18.1 7.58 84.32 84.32 0 0 1-21.52 2.69q-18.57.03-32.47-7.55ZM1323.82 494.33v56.5q0 8.07-5 12.72t-13.57 4.65q-8.57 0-13.45-4.65t-4.9-12.72v-57q0-10.75-4.52-16t-14.06-5.25q-11.5 0-18.47 7.33t-7 19.57v51.36q0 8.07-4.89 12.72t-13.45 4.65q-8.57 0-13.58-4.65t-5-12.72V410a15.53 15.53 0 0 1 5.26-12.23q5.25-4.64 13.82-4.64 8.07 0 13 4.4a15 15 0 0 1 4.89 11.74v53.32a40.74 40.74 0 0 1 16.39-14.07 52.41 52.41 0 0 1 22.74-4.76q41.78-.05 41.79 50.57ZM1458.82 456.3q10.52 12.6 10.52 38v56.5q0 8.07-5 12.72t-13.57 4.65q-8.57 0-13.45-4.65c-3.27-3.1-4.89-7.34-4.89-12.72v-54.75q0-12.24-4.53-17.86t-14.06-5.62q-11.5 0-18.47 7.33t-7 19.57v51.36q0 8.07-4.89 12.72T1370 568.2q-8.57 0-13.58-4.65t-5-12.72v-89.76a15.53 15.53 0 0 1 5.26-12.23q5.25-4.63 13.57-4.65 7.58 0 12.35 4.53a15.31 15.31 0 0 1 4.77 11.62v3.42a42.13 42.13 0 0 1 16.51-14.92 50 50 0 0 1 22.87-5.13q21.56 0 32.07 12.59ZM1521.18 561a54 54 0 0 1-22.25-21.77q-7.83-14.06-7.83-33.14t7.83-33.14a53.19 53.19 0 0 1 22.25-21.64q14.43-7.57 33.51-7.58t33.51 7.58a53.25 53.25 0 0 1 22.25 21.64q7.83 14.07 7.83 33.14t-7.83 33.14A54 54 0 0 1 1588.2 561q-14.43 7.71-33.51 7.7t-33.51-7.7Zm60.41-54.91q0-17.35-7-25.92t-19.93-8.56q-26.91 0-26.9 34.48t26.9 34.49q26.92-.02 26.93-34.51ZM1646 563.79q-5.26-4.39-5.26-13V410.44q0-8.55 5.26-13t13.33-4.4a19.69 19.69 0 0 1 13.08 4.4q5.27 4.41 5.26 13v140.39q0 8.56-5.26 13a19.64 19.64 0 0 1-13.08 4.41q-8.03-.04-13.33-4.45ZM1730.3 561a54 54 0 0 1-22.3-21.79q-7.83-14.06-7.83-33.14t7.83-33.14a53.21 53.21 0 0 1 22.26-21.64q14.43-7.57 33.5-7.58t33.51 7.58a53.27 53.27 0 0 1 22.26 21.64q7.82 14.07 7.82 33.14t-7.82 33.14a54.05 54.05 0 0 1-22.22 21.79q-14.43 7.71-33.51 7.7t-33.5-7.7Zm60.41-54.91q0-17.35-7-25.92t-19.94-8.56q-26.9 0-26.9 34.48t26.9 34.49q26.94-.02 26.94-34.51ZM1967.41 449q5 4.77 5 12.6v92.21q0 29.1-16.88 44t-49.4 14.92q-27.4 0-45-9.78a19.8 19.8 0 0 1-6.85-6 13.67 13.67 0 0 1-2.45-7.95 16.21 16.21 0 0 1 2.94-10 9.28 9.28 0 0 1 7.82-3.92 22.7 22.7 0 0 1 6.36 1.1c2.45.74 5 1.59 7.58 2.57a144.56 144.56 0 0 0 14.43 4.65 56.48 56.48 0 0 0 14.19 1.71q15.64 0 23.23-7.09t7.59-21.52v-13.25a36.24 36.24 0 0 1-15.41 14.67 48.78 48.78 0 0 1-23 5.38q-15.66 0-27.76-7.33a50.35 50.35 0 0 1-19-20.91q-6.84-13.57-6.85-31.43t6.85-31.43a51.11 51.11 0 0 1 19-21q12.11-7.47 27.76-7.46a48.52 48.52 0 0 1 22.62 5.25 37.28 37.28 0 0 1 15.53 14.56v-2.45q0-7.83 5-12.35t13.33-4.53q8.36-.03 13.37 4.78Zm-38.88 77.9q7.2-8.31 7.21-23.23t-7.21-23.36q-7.21-8.44-20.18-8.44t-20.3 8.44q-7.33 8.44-7.34 23.36t7.34 23.23q7.34 8.32 20.3 8.32t20.18-8.36ZM2089 447.13a16.45 16.45 0 0 1 8.68-2.45 18.76 18.76 0 0 1 12.47 4.53 13.76 13.76 0 0 1 5.38 10.88 15.19 15.19 0 0 1-1.71 6.85L2048 602a17.67 17.67 0 0 1-6.6 7.7 16.54 16.54 0 0 1-8.81 2.57 17.86 17.86 0 0 1-12-4.4 13.66 13.66 0 0 1-5.14-10.76 16.2 16.2 0 0 1 1.71-7.34l16.15-33.51-43.54-89.27a16.68 16.68 0 0 1-1.47-6.6c0-4.41 1.92-8.15 5.75-11.25a20.23 20.23 0 0 1 13.09-4.65 16.94 16.94 0 0 1 9 2.57 17.67 17.67 0 0 1 6.6 7.7l30.33 66 29.59-66a15.81 15.81 0 0 1 6.34-7.63Z"/>
    </g>
  </g>
</svg>